<svg width="553" height="152" viewBox="0 0 553 152" fill="none" xmlns="http://www.w3.org/2000/svg">
<path d="M62.5227 71.1324L64.2116 68.4118L61.9267 66.1684C56.9977 61.3288 54.7413 58.4586 51.9742 52.4776C51.2842 44.9229 51.3108 39.6543 52.1082 35.1471C52.9163 30.5794 54.558 26.5608 57.4263 21.5707L60.8713 15.5773H53.9584H31.0807H29.3808L28.201 16.8011C23.3792 21.8026 19.846 26.0825 16.9413 30.8719C14.0389 35.6573 11.8558 40.8004 9.58474 47.432L8.9213 49.3693L10.105 51.0402C20.296 65.4253 27.2773 73.194 42.5617 85.7647L44.7792 87.5886L47.2166 86.0711C50.7063 83.8985 53.4677 81.947 55.9111 79.5964C58.3735 77.2275 60.3822 74.5801 62.5227 71.1324Z" fill="#6A1FFF" stroke="black" stroke-width="8"/>
<path d="M105.284 70.555L103.595 67.8345L105.88 65.5911C110.809 60.7515 113.066 57.8813 115.833 51.9002C116.523 44.3456 116.496 39.0769 115.699 34.5698C114.891 30.0021 113.249 25.9834 110.381 20.9934L106.936 15H113.849H136.726H138.426L139.606 16.2238C144.428 21.2253 147.961 25.5052 150.866 30.2946C153.768 35.08 155.951 40.223 158.222 46.8546L158.886 48.7919L157.702 50.4629C147.511 64.848 140.53 72.6167 125.245 85.1874L123.028 87.0112L120.59 85.4938C117.101 83.3211 114.339 81.3697 111.896 79.0191C109.433 76.6501 107.425 74.0028 105.284 70.555Z" fill="#6A1FFF" stroke="black" stroke-width="8"/>
<path d="M21.4869 46.8829C22.939 54.4698 24.2586 58.668 27.3908 66.0706C20.7593 59.6338 17.4864 55.5602 13 46.8829C18.7832 34.5982 22.7134 28.7374 30.3427 19.2083H54.3274L51.7444 23.6362C45.6719 24.0337 42.2379 24.3 35.1397 26.2192C29.0523 33.1599 25.9222 37.4738 21.4869 46.8829Z" fill="white" fill-opacity="0.2"/>
<path d="M32.5567 28.8021L49.1615 36.551L50.8135 28.8021L32.5567 25.1122V28.8021Z" fill="black"/>
<path d="M136.197 28.8021L119.592 36.551L117.492 28.8021L136.197 25.1122V28.8021Z" fill="black"/>
<path d="M63.9213 15.2083H62.9995L62.1706 15.6118C56.9022 18.1762 54.1554 22.6685 52.7854 28.8848C51.472 34.844 51.291 42.9432 51.4348 53.5789L51.4491 54.6398L51.9874 55.5541C53.5241 58.1644 54.992 60.4097 56.9101 62.332C58.3265 63.7516 59.8973 64.9071 61.7662 65.9482V67.4986C61.7662 71.3656 64.902 74.4986 68.7669 74.4986H72.4671V95.5902V96.3057L72.7151 96.9768C75.4698 104.43 78.5615 110.174 83.6487 114.229C88.7288 118.278 95.2773 120.231 104.011 121.33L104.69 121.415L105.359 121.27C109.43 120.387 112.75 119.461 115.903 118.01C119.082 116.548 121.919 114.633 125.148 111.951L128.66 109.032L125.305 105.935L120.508 101.507L118.214 99.3899L115.603 101.1C109.309 105.221 106.11 105.834 104.324 105.406C102.782 105.036 100.946 103.533 98.5478 98.727V74.4986H102.511C105.824 74.4986 108.511 71.8123 108.511 68.4986V65.8102C110.233 64.7426 111.698 63.5875 113.021 62.1831C114.823 60.2687 116.198 58.0615 117.623 55.428L118.099 54.5482L118.104 53.5479C118.167 42.7359 117.675 34.9936 116.04 29.1895C114.32 23.0834 111.34 19.1334 106.818 15.9406L105.78 15.2083H104.511H63.9213Z" fill="#32FE87" stroke="black" stroke-width="8"/>
<path d="M75.0996 49.8348L63.5523 42.8239V49.8348L75.0996 56.8457V49.8348Z" fill="black"/>
<path d="M106.464 49.8349L94.9168 56.8458V49.8349L106.464 42.824V49.8349Z" fill="black"/>
<path d="M64.4314 68.2737L61.4769 68.181L60.2185 70.8556C57.6094 76.4007 54.8255 83.5599 52.8619 89.1789C51.8818 91.9835 51.0742 94.4953 50.5892 96.2841C50.3637 97.116 50.1403 98.0315 50.0538 98.7902C50.0301 98.9981 50.0046 99.2922 50.0105 99.6261C50.0147 99.8677 50.0345 100.571 50.3526 101.368C50.7062 102.255 51.8717 104.121 54.3613 104.25C56.1455 104.343 57.3145 103.381 57.5484 103.189L57.5537 103.185C58.221 102.636 59.1943 101.579 60.148 100.479C61.1985 99.266 62.4934 97.6843 63.8725 95.8649C66.6053 92.2596 69.8001 87.5481 72.0453 82.8195L72.296 82.2914L72.4035 81.7167C72.754 79.8429 72.9691 78.1542 72.9677 76.6711C72.9664 75.2214 72.7624 73.5658 71.9198 72.052C69.951 68.5146 66.1373 68.3272 64.4314 68.2737Z" fill="white" stroke="black" stroke-width="9"/>
<path d="M105.611 67.7735L108.691 67.6768L109.57 70.6304C111.082 75.7101 114.107 82.421 116.758 87.9781C117.567 89.673 118.293 91.1632 118.931 92.4723C119.353 93.3392 119.737 94.1268 120.08 94.8418C120.481 95.676 120.833 96.4261 121.059 96.9679C121.142 97.1673 121.329 97.6146 121.436 98.0824C121.468 98.2182 121.522 98.4785 121.541 98.8047L121.541 98.8073C121.553 99.0116 121.604 99.862 121.15 100.807C120.883 101.362 120.401 102.032 119.591 102.516C118.774 103.005 117.94 103.118 117.29 103.08C116.195 103.015 115.451 102.519 115.276 102.402L115.274 102.401C114.863 102.127 114.371 101.683 114.054 101.394C113.632 101.009 113.099 100.504 112.488 99.9028C111.264 98.6987 109.684 97.0679 108.001 95.1759C104.694 91.4595 100.741 86.4665 98.4328 81.605L98.2099 81.1356L98.1144 80.6248C97.7664 78.7641 97.5574 77.11 97.5587 75.6715C97.56 74.2628 97.7593 72.7039 98.5434 71.2951C100.364 68.0244 103.893 67.8274 105.611 67.7735ZM113.725 100.171C113.725 100.171 113.723 100.166 113.719 100.154C113.722 100.165 113.725 100.171 113.725 100.171Z" fill="white" stroke="black" stroke-width="8"/>
<path d="M179.41 104.99V64.13C179.41 49.73 189.13 40.37 203.08 40.37C217.21 40.37 227.11 50.09 227.11 64.22C227.11 79.43 215.77 87.17 204.97 87.17C198.58 87.17 193.27 84.47 190.12 79.52V104.99H179.41ZM203.17 77.18C211 77.18 216.31 71.6 216.31 63.77C216.31 55.94 211 50.36 203.17 50.36C195.34 50.36 190.12 55.94 190.12 63.77C190.12 71.6 195.34 77.18 203.17 77.18ZM256.486 106.16C245.416 106.16 236.686 101.39 233.896 90.86H244.696C246.496 95 250.816 96.89 256.486 96.89C264.406 96.89 269.356 93.2 269.356 82.85V78.98C266.296 83.93 260.986 86.63 254.326 86.63C243.706 86.63 232.366 79.52 232.366 63.77C232.366 50.27 242.266 40.37 256.306 40.37C270.346 40.37 280.066 49.73 280.066 64.13V82.49C280.066 99.5 269.536 106.16 256.486 106.16ZM256.306 76.64C264.136 76.64 269.356 71.6 269.356 63.77C269.356 55.94 264.136 50.36 256.306 50.36C248.476 50.36 243.166 55.94 243.166 63.77C243.166 71.6 248.476 76.64 256.306 76.64ZM305.932 87.17C294.592 87.17 287.482 81.14 287.212 72.86H298.012C298.102 75.83 300.712 77.81 305.932 77.81C311.422 77.81 313.762 75.56 313.762 72.86C313.762 69.44 309.802 68.99 305.032 68.36C298.192 67.46 288.112 66.29 288.112 55.4C288.112 46.31 295.042 40.37 305.752 40.37C316.642 40.37 323.302 46.49 323.572 54.32H312.952C312.682 51.62 310.162 49.73 305.932 49.73C301.252 49.73 298.912 51.98 298.912 54.59C298.912 58.01 302.962 58.55 307.732 59.18C313.672 59.99 324.562 61.16 324.562 72.23C324.562 81.23 317.272 87.17 305.932 87.17ZM331.637 86V60.62C331.637 46.67 339.737 40.37 350.267 40.37C356.927 40.37 362.417 43.16 365.657 48.38C368.807 43.16 374.297 40.37 381.047 40.37C391.577 40.37 399.677 46.67 399.677 60.62V86H388.967V60.62C388.967 53.33 385.187 50.36 379.967 50.36C374.837 50.36 371.057 53.42 371.057 60.62V86H360.347V60.62C360.347 53.42 356.477 50.36 351.347 50.36C346.127 50.36 342.347 53.33 342.347 60.62V86H331.637ZM415.383 35.78C411.243 35.78 408.273 32.81 408.273 28.67C408.273 24.53 411.243 21.47 415.383 21.47C419.523 21.47 422.493 24.53 422.493 28.67C422.493 32.81 419.523 35.78 415.383 35.78ZM409.983 86V41.54H420.693V86H409.983ZM449.221 87.17C438.421 87.17 431.041 81.23 431.041 68.9V25.79H441.751V41.54H464.701V51.26H441.751V68.9C441.751 74.84 444.811 77.18 449.221 77.18C453.631 77.18 456.691 74.93 456.691 68.9V67.73H467.401V68.9C467.401 81.23 460.021 87.17 449.221 87.17ZM475.723 86V22.1H486.433V47.75C489.403 42.98 493.993 40.37 499.663 40.37C509.923 40.37 519.643 47.03 519.643 62.87V86H508.933V62.87C508.933 54.41 504.433 50.36 497.683 50.36C491.113 50.36 486.433 54.59 486.433 62.87V86H475.723Z" fill="black"/>
</svg>
